<svg width="268" height="54" viewBox="0 0 268 54" fill="none" xmlns="http://www.w3.org/2000/svg">
<g clip-path="url(#clip0_25_146)">
<path d="M13.8412 0.065361C12.8827 0.371387 12.0076 1.1945 11.7159 2.04926C11.1221 3.81155 12.0597 5.63717 13.8203 6.15425L14.3725 6.32309L14.3308 13.0873C14.2891 20.5164 14.2996 20.3476 13.612 22.3209C13.1015 23.7983 12.5806 24.6953 10.9137 26.9324C9.51771 28.8214 9.35103 29.0746 9.40312 29.3595C9.52813 30.0033 10.174 30.2354 10.6533 29.8133C11.2158 29.2962 13.7578 25.74 14.2579 24.748C15.1017 23.1018 15.8206 20.5903 15.8206 19.324V18.9652H17.2687C18.5709 18.9652 18.7376 18.9441 18.9876 18.7436C19.3418 18.4586 19.3627 17.931 19.0189 17.6144C18.7897 17.4034 18.6751 17.3823 17.2999 17.3823H15.8206V16.0632V14.7441H17.2687C18.5709 14.7441 18.7376 14.723 18.9876 14.5225C19.3418 14.2376 19.3627 13.7099 19.0189 13.3934C18.8001 13.1929 18.6543 13.1612 17.3312 13.1401L15.8727 13.1084L15.8414 12.4753C15.8206 12.127 15.831 11.5467 15.8727 11.1773L15.9456 10.523H17.3208C18.5709 10.523 18.7376 10.5019 18.9876 10.3014C19.3418 10.0165 19.3627 9.48888 19.0189 9.17231C18.7897 8.96125 18.6751 8.94015 17.352 8.94015H15.9248V7.62106V6.30198H20.4045H24.8842V12.7074C24.8842 19.7777 24.9259 20.3159 25.5197 22.2893C26.1656 24.4314 26.6865 25.2968 29.8848 29.56C31.4892 31.7022 32.781 33.4751 32.7602 33.4962C32.7393 33.5173 32.4372 33.4645 32.083 33.3696C29.2806 32.6414 26.1135 33.2113 22.311 35.1424C21.4671 35.5751 21.3734 35.6067 21.1858 35.459C20.8108 35.1741 19.2168 34.4037 18.5292 34.1716C17.3729 33.7917 16.3519 33.6334 14.6225 33.5595C12.3201 33.4751 9.59064 33.8339 7.75708 34.4776C7.43412 34.5831 7.17367 34.657 7.17367 34.6253C7.17367 34.6042 7.52788 34.1082 7.97586 33.5278C8.61135 32.6836 8.76762 32.4093 8.7572 32.1349C8.73637 31.5123 7.97586 31.1852 7.50705 31.5967C7.23618 31.85 2.58977 37.9916 2.1418 38.7198C0.86039 40.7459 0.131133 43.1202 0.0165359 45.6212C-0.0772258 47.7212 0.224895 49.3041 0.995824 50.7603C1.42296 51.5729 2.70437 52.8181 3.52739 53.2297C5.09008 53.9894 3.82951 53.9367 19.9253 53.9683C35.4897 54.0106 35.2813 54.0106 36.6877 53.4724C37.0315 53.3457 37.6045 53.0292 37.9692 52.7759L38.6463 52.301L39.0526 52.6598C39.9694 53.4513 41.48 54 42.751 54C45.3867 54 47.8037 52.1005 48.4705 49.494C48.6163 48.9242 48.6371 47.2569 48.6371 35.0158C48.6371 21.3184 48.6371 21.1812 48.4288 20.9702C48.1683 20.7064 47.6891 20.6958 47.3766 20.9596C47.1265 21.1601 47.1265 21.1707 47.0953 23.9038L47.064 26.6581L46.6786 26.7952C46.4598 26.8691 45.8451 26.9324 45.2513 26.9324C44.2304 26.9324 44.1991 26.9219 43.324 26.4681C42.178 25.8772 41.7613 25.7294 40.8653 25.6133C40.1882 25.5289 39.0422 25.6133 38.5942 25.7822C38.4484 25.8455 38.4275 25.6978 38.4275 24.3048V22.7641H39.8652C41.2404 22.7641 41.3237 22.7536 41.5321 22.5214C41.8551 22.1732 41.8342 21.6772 41.4904 21.4028C41.2404 21.2023 41.0737 21.1812 39.8236 21.1812H38.4275V19.8621V18.5431H39.8652C41.2404 18.5431 41.3237 18.5325 41.5321 18.3004C41.8551 17.9521 41.8342 17.4561 41.4904 17.1818C41.2404 16.9813 41.0737 16.9602 39.8236 16.9602H38.4275V15.6411V14.322H39.8652C41.2404 14.322 41.3237 14.3115 41.5321 14.0793C41.8551 13.7311 41.8342 13.2351 41.4904 12.9607C41.2404 12.7602 41.0737 12.7391 39.8236 12.7391H38.4275V11.42V10.1009H42.751H47.0745V14.0054C47.0745 17.2345 47.1057 17.9732 47.2307 18.2159C47.4808 18.7119 48.0433 18.8069 48.408 18.4059C48.6371 18.1632 48.6371 18.121 48.6371 14.1426V10.1115L49.1893 9.85823C50.3457 9.32004 50.9291 8.46528 51.0124 7.18841C51.0854 6.09093 50.8458 5.46832 50.0957 4.69798C49.1476 3.74824 49.3456 3.76934 42.751 3.76934C36.1564 3.76934 36.3544 3.74824 35.4063 4.69798C34.9792 5.14119 34.7813 5.44722 34.6458 5.86932C34.1353 7.49443 34.7604 9.07733 36.1981 9.79491L36.8649 10.1326V23.1651C36.8649 30.953 36.8232 36.166 36.7711 36.1132C36.719 36.0499 34.7917 33.4856 32.4893 30.4148C28.2388 24.7375 27.8325 24.1254 27.2282 22.4475C26.5198 20.4636 26.5302 20.5375 26.4781 13.0873L26.4261 6.32309L26.9886 6.15425C28.0408 5.84822 28.8951 4.97235 29.166 3.92764C29.541 2.53468 28.8222 0.983444 27.4887 0.276413L27.0199 0.0231514L20.5607 0.00204468C17.0082 -0.00850677 13.987 0.0231514 13.8412 0.065361ZM26.8636 1.75379C27.3637 2.02816 27.6137 2.40805 27.6658 2.999C27.7283 3.68493 27.4574 4.17035 26.8636 4.47637L26.4052 4.71909H20.3524C14.6642 4.71909 14.2891 4.70853 13.9453 4.51859C12.8306 3.92764 12.8306 2.30252 13.9453 1.74323C14.2787 1.56384 14.81 1.55329 20.4045 1.55329C26.1448 1.55329 26.5198 1.56384 26.8636 1.75379ZM48.6371 5.54219C49.4289 5.94319 49.7102 6.95625 49.2414 7.78991C48.8247 8.5497 49.0122 8.52859 42.6051 8.49694L36.8857 8.46528L36.6044 8.20146C36.1564 7.77935 36.0002 7.38891 36.0522 6.80851C36.1148 6.19646 36.3752 5.79546 36.8753 5.54219C37.1982 5.37335 37.6983 5.35224 42.751 5.35224C47.8037 5.35224 48.3038 5.37335 48.6371 5.54219ZM42.3759 27.7555C43.6053 28.4098 44.4491 28.6103 45.668 28.5364C46.1889 28.5048 46.7098 28.4415 46.8453 28.3993L47.0745 28.3359V38.5615C47.0745 48.4176 47.064 48.8186 46.8765 49.3885C46.3869 50.8131 45.2513 51.8789 43.7928 52.2694C41.6154 52.8603 39.2193 51.4674 38.5942 49.2513C38.4484 48.7342 38.4275 47.4785 38.4484 38.076L38.4796 27.4812L38.8443 27.344C39.0839 27.249 39.5944 27.2068 40.3132 27.2279C41.4175 27.249 41.4383 27.2596 42.3759 27.7555ZM31.2392 34.8047C32.083 34.963 33.0623 35.3007 34.0103 35.765C34.8334 36.166 34.8646 36.1977 35.8543 37.5167L36.8649 38.8675V43.88C36.8649 49.2196 36.8857 49.4201 37.4066 50.5493L37.6358 51.0558L37.3232 51.3091C36.844 51.7101 35.9689 52.1005 35.2188 52.2694C34.1562 52.491 6.62152 52.491 5.55889 52.2588C2.99607 51.7101 1.55839 49.5995 1.54798 46.381C1.54798 45.8217 1.60007 44.9986 1.66257 44.5554C1.79801 43.6267 1.67299 43.7006 3.42321 43.6056C5.59014 43.5001 8.48634 42.9619 10.9137 42.2127C13.5599 41.4107 16.154 40.2182 21.6025 37.3374C26.2802 34.8575 28.4159 34.2982 31.2392 34.8047ZM16.8832 35.364C17.7166 35.554 18.8522 35.955 19.4044 36.2399L19.8002 36.4509L19.3418 36.7253C18.5188 37.2107 14.9663 38.9836 13.9453 39.4162C10.7887 40.7459 7.86126 41.5479 4.72545 41.9172C3.43363 42.0649 2.27723 42.1283 2.27723 42.0333C2.27723 41.9067 2.9544 40.4082 3.22527 39.9439C3.40237 39.6378 3.90243 38.8991 4.33999 38.3082C5.12134 37.2635 5.16301 37.2318 6.0277 36.8203C7.55914 36.1027 9.47604 35.554 11.445 35.2585C12.716 35.0791 15.8935 35.1424 16.8832 35.364Z" fill="black"/>
<path d="M41.5738 32.3143C41.0321 32.5992 40.6883 32.9685 40.3757 33.5806C39.7819 34.7941 40.3341 36.3665 41.5946 37.0419C42.1885 37.3584 43.3136 37.3584 43.9074 37.0419C44.8763 36.5248 45.5014 35.3429 45.3555 34.3193C45.2409 33.6122 44.72 32.7997 44.1158 32.4198C43.6991 32.1665 43.4699 32.1032 42.8656 32.0716C42.2301 32.0399 42.053 32.0716 41.5738 32.3143ZM43.4595 33.9077C43.8345 34.2876 43.9074 34.7203 43.6678 35.1424C43.4178 35.575 43.0532 35.765 42.6052 35.7017C41.3238 35.5117 41.4592 33.6334 42.7615 33.6334C43.0844 33.6334 43.2615 33.6967 43.4595 33.9077Z" fill="black"/>
<path d="M41.1154 40.7459C40.8237 40.9675 40.7195 41.3579 40.8758 41.7167C41.1987 42.4976 42.2822 42.2444 42.2822 41.3896C42.2822 40.7564 41.5946 40.3765 41.1154 40.7459Z" fill="black"/>
<path d="M42.7406 46.8559C42.1884 47.3413 42.4697 48.196 43.1886 48.196C43.9178 48.196 44.2408 47.2885 43.6782 46.8348C43.324 46.5498 43.0844 46.5604 42.7406 46.8559Z" fill="black"/>
<path d="M22.3005 40.4188C21.7171 41.052 22.363 42.0017 23.1652 41.6957C23.4152 41.5902 23.6444 41.0626 23.5715 40.7565C23.4257 40.1867 22.6964 39.9862 22.3005 40.4188Z" fill="black"/>
<path d="M27.5096 41.6112C26.3636 41.9172 25.4155 42.7403 24.9051 43.8484C24.6655 44.3655 24.6238 44.5871 24.6238 45.4524C24.6238 46.3705 24.655 46.5182 24.9572 47.1514C26.0198 49.3358 28.6555 50.1061 30.6454 48.8081C33.5728 46.9086 32.7081 42.2971 29.2806 41.5584C28.5722 41.4107 28.1971 41.4213 27.5096 41.6112ZM29.1035 43.1413C29.3535 43.2047 29.7494 43.4263 29.989 43.6268C31.2496 44.7242 31.1454 46.5393 29.7702 47.4679C28.343 48.4493 26.3427 47.489 26.1656 45.7479C26.0406 44.5448 26.6449 43.5846 27.7804 43.173C28.2596 43.0042 28.5201 42.9936 29.1035 43.1413Z" fill="black"/>
<path d="M16.0498 42.7825C15.9769 42.8141 15.8519 42.9724 15.7581 43.1518C15.3518 43.9433 16.352 44.6925 16.9458 44.0488C17.55 43.4051 16.8729 42.4448 16.0498 42.7825Z" fill="black"/>
<path d="M9.98651 44.5977C8.72594 45.0198 8.01752 45.9695 8.0071 47.2569C7.99668 50.1167 11.7888 51.0453 13.0494 48.4916C13.5182 47.5419 13.4036 46.3811 12.7577 45.5263C12.2055 44.7982 10.7991 44.3233 9.98651 44.5977ZM11.4763 46.5077C12.1326 47.2464 11.6326 48.4072 10.6428 48.4072C10.049 48.4072 9.58021 47.9112 9.5698 47.2886C9.5698 46.2122 10.7679 45.7162 11.4763 46.5077Z" fill="black"/>
<path d="M19.2585 24.6741C17.3728 25.5289 16.9978 28.1143 18.5501 29.4545C19.4356 30.2248 20.5816 30.362 21.6442 29.8238C22.7381 29.2645 23.3007 28.2409 23.1861 26.9957C23.1027 25.9827 22.5089 25.1279 21.6025 24.7058C20.915 24.3786 19.9252 24.3681 19.2585 24.6741ZM21.1129 26.2043C21.415 26.4153 21.6546 26.9007 21.6546 27.3017C21.6546 28.2831 20.5399 28.8952 19.7377 28.3676C19.321 28.0932 19.1647 27.7661 19.1543 27.2068C19.1543 26.8269 19.2168 26.6897 19.5085 26.3942C19.8106 26.0882 19.9357 26.0354 20.3732 26.0354C20.6649 26.0354 20.9775 26.1093 21.1129 26.2043Z" fill="black"/>
</g>
<path d="M74.328 31.216L64.408 9.2H74.136L79.32 22L80.536 26.864L81.688 22L87.128 9.2H95.832L85.592 30.768L96.344 54H86.936L80.92 40.24L79.576 35.248L78.296 40.24L72.28 54H63.384L74.328 31.216ZM120.877 30.128L121.517 23.792H121.197L118.765 30.576L106.029 54H99.6925V9.2H107.757V32.624L107.053 39.152H107.373L109.933 32.176L122.669 9.2H128.941V54H120.877V30.128ZM163.365 30.896L164.261 22.32H163.941L161.573 30L154.277 45.744H151.589L143.845 29.936L141.477 22.192H141.093L142.309 30.832V54H134.693V9.2H142.437L151.781 28.592L153.317 34.16H153.573L155.045 28.464L163.812 9.2H171.429V54H163.365V30.896ZM184.553 9.2V23.92C184.553 26.5653 184.937 28.464 185.705 29.616C186.473 30.7253 187.731 31.28 189.481 31.28C190.718 31.28 191.87 31.088 192.937 30.704C194.046 30.32 194.921 29.7653 195.561 29.04V9.2H203.625V54H195.561V35.952C194.707 36.5493 193.513 37.1253 191.977 37.68C190.483 38.192 188.713 38.448 186.665 38.448C185.257 38.448 183.934 38.256 182.697 37.872C181.459 37.4453 180.371 36.784 179.433 35.888C178.537 34.9493 177.811 33.7333 177.257 32.24C176.745 30.704 176.489 28.8053 176.489 26.544V9.2H184.553ZM209.38 9.2H231.78V16.624H217.444V27.632H230.436V35.056H217.444V46.576H232.036V54H209.38V9.2ZM246.672 34.8H244.944V54H236.88V9.2H244.944V29.104L246.544 28.336L255.952 9.2H265.04L254.8 28.08L251.792 30.448L254.864 32.88L266.704 54H256.848L246.672 34.8Z" fill="black"/>
<defs>
<clipPath id="clip0_25_146">
<rect width="51" height="54" fill="white"/>
</clipPath>
</defs>
</svg>
